<svg aria-hidden="true" style="position: absolute; width: 0; height: 0; overflow: hidden;" version="1.1" xmlns="http://www.w3.org/2000/svg" xmlns:xlink="http://www.w3.org/1999/xlink">
<defs>
<symbol id="icon-bonfire-sharp-1" viewBox="0 0 32 32">
<path d="M12.493 21l-0.953-0.351c-0.756-0.344-1.435-0.834-2-1.443-0.871-0.931-1.831-2.544-1.461-4.944 0.325-2.108 2.762-4.638 4.334-6.117 1.703-1.601 4.125-4.116 4.009-6.197l-0.047-0.948h0.949c3.209 0 6.676 2.351 6.676 6.151 0 2.848-1.375 4.851-4.307 6.681-0.5 0.313-1.028 0.604-1.589 0.908-1.914 1.039-4.706 3.114-5.358 5.332l-0.253 0.928zM11.324 7.099c1.238-1.162 2.357-2.215 2.902-3.362-0.115-0.070-0.234-0.134-0.356-0.193-0.742-0.356-1.631-0.521-2.797-0.521h-1.059l0.035 1.031c0.029 0.879-0.379 1.407-0.896 2.076-0.541 0.7-1.153 1.492-1.153 2.684 0 0.639 0.081 1.172 0.262 1.648 0.146-0.221 0.304-0.443 0.476-0.664 0.762-0.983 1.691-1.855 2.586-2.696z"></path>
<path d="M20.646 14.991c-0.582 0.369-1.188 0.696-1.828 1.044-2.041 1.106-3.967 2.152-4.577 4.215l-0.037 0.125c0.9 0.411 1.878 0.624 2.867 0.625 1.854 0 3.591-0.696 4.89-1.96 0.649-0.63 1.165-1.384 1.515-2.218s0.529-1.73 0.524-2.635c-0.005-0.661-0.123-1.316-0.349-1.938-0.709 1.011-1.696 1.911-3.004 2.741zM16.795 22.5h-1.59c-0.058 0-0.114 0.020-0.159 0.057s-0.075 0.088-0.086 0.144l-1.585 8c-0.007 0.036-0.006 0.074 0.003 0.109s0.026 0.069 0.049 0.098c0.023 0.029 0.053 0.052 0.086 0.068s0.070 0.024 0.107 0.024h4.766c0.037 0 0.073-0.008 0.107-0.024s0.063-0.039 0.086-0.068c0.023-0.028 0.040-0.062 0.049-0.098s0.010-0.073 0.003-0.109l-1.588-8c-0.012-0.057-0.043-0.109-0.088-0.145s-0.102-0.056-0.16-0.056zM20.355 22.145l-0.71 0.71c-0.041 0.041-0.066 0.095-0.072 0.152s0.009 0.115 0.041 0.163l3.717 5.576c0.021 0.031 0.048 0.057 0.079 0.076s0.067 0.031 0.104 0.034 0.074-0.001 0.109-0.013c0.035-0.012 0.066-0.032 0.093-0.059l2.569-2.569c0.026-0.026 0.046-0.058 0.059-0.093s0.017-0.072 0.013-0.109-0.015-0.072-0.034-0.104c-0.019-0.032-0.045-0.059-0.076-0.079l-5.576-3.717c-0.048-0.032-0.106-0.047-0.163-0.041s-0.111 0.031-0.152 0.072zM24.25 21c-0.066 0-0.13 0.026-0.177 0.073s-0.073 0.11-0.073 0.177v0.538c0 0.059 0.021 0.116 0.059 0.162s0.091 0.075 0.15 0.085l5.5 0.916c0.036 0.006 0.072 0.004 0.107-0.005s0.068-0.027 0.095-0.050c0.028-0.023 0.050-0.052 0.065-0.085s0.023-0.069 0.023-0.105v-1.455c0-0.066-0.026-0.13-0.073-0.177s-0.11-0.073-0.177-0.073h-5.5zM11.645 22.145l0.71 0.71c0.041 0.041 0.066 0.095 0.072 0.152s-0.009 0.115-0.041 0.163l-3.717 5.576c-0.021 0.031-0.048 0.057-0.079 0.076s-0.067 0.031-0.104 0.034-0.074-0.001-0.109-0.013c-0.035-0.012-0.066-0.032-0.093-0.059l-2.569-2.569c-0.026-0.026-0.046-0.058-0.059-0.093s-0.017-0.072-0.013-0.109 0.015-0.072 0.035-0.104c0.019-0.032 0.045-0.059 0.076-0.079l5.576-3.717c0.048-0.032 0.106-0.047 0.163-0.041s0.111 0.031 0.152 0.072zM7.75 21h-5.5c-0.066 0-0.13 0.026-0.177 0.073s-0.073 0.11-0.073 0.177v1.455c0 0.036 0.008 0.072 0.023 0.105s0.038 0.062 0.065 0.085c0.028 0.024 0.060 0.041 0.095 0.050s0.072 0.012 0.107 0.005l5.5-0.916c0.058-0.010 0.111-0.040 0.15-0.085s0.059-0.103 0.059-0.162v-0.538c0-0.066-0.026-0.13-0.073-0.177s-0.11-0.073-0.177-0.073z"></path>
</symbol>
<symbol id="icon-f" viewBox="0 0 32 32">
<path d="M22.682 18l0.889-5.791h-5.557v-3.758c0-1.584 0.776-3.129 3.265-3.129h2.526v-4.931c0 0-2.293-0.391-4.484-0.391-4.576 0-7.567 2.774-7.567 7.795v4.414h-5.087v5.791h5.087v14h6.261v-14h4.668z"></path>
</symbol>
<symbol id="icon-t" viewBox="0 0 32 32">
<path d="M28.28 9.58c0.020 0.28 0.020 0.56 0.020 0.84 0 8.54-6.5 18.38-18.38 18.38-3.66 0-7.060-1.060-9.92-2.9 0.52 0.060 1.020 0.080 1.56 0.080 3.020 0 5.8-1.020 8.020-2.76-2.84-0.060-5.22-1.92-6.040-4.48 0.4 0.060 0.8 0.1 1.22 0.1 0.58 0 1.16-0.080 1.7-0.22-2.96-0.6-5.18-3.2-5.18-6.34v-0.080c0.86 0.48 1.86 0.78 2.92 0.82-1.74-1.16-2.88-3.14-2.88-5.38 0-1.2 0.32-2.3 0.88-3.26 3.18 3.92 7.96 6.48 13.32 6.76-0.1-0.48-0.16-0.98-0.16-1.48 0-3.56 2.88-6.46 6.46-6.46 1.86 0 3.54 0.78 4.72 2.040 1.46-0.28 2.86-0.82 4.1-1.56-0.48 1.5-1.5 2.76-2.84 3.56 1.3-0.14 2.56-0.5 3.72-1-0.88 1.28-1.98 2.42-3.24 3.34z"></path>
</symbol>
<symbol id="icon-g" viewBox="0 0 32 32">
<path d="M18.663 14.625c0.092 0.485 0.157 0.969 0.157 1.598 0 5.488-3.68 9.377-9.22 9.377-5.304 0-9.6-4.296-9.6-9.6s4.296-9.6 9.6-9.6c2.593 0 4.754 0.943 6.431 2.515l-2.606 2.502c-0.707-0.681-1.951-1.48-3.824-1.48-3.274 0-5.946 2.711-5.946 6.064s2.672 6.064 5.946 6.064c3.798 0 5.226-2.737 5.448-4.139h-5.448v-3.3l9.063 0zM27.933 14.947v-2.787h-2.8v2.787h-2.787v2.8h2.787v2.787h2.8v-2.787h2.787v-2.8h-2.787z"></path>
</symbol>
<symbol id="icon-l" viewBox="0 0 32 32">
<path d="M7.163 32h-6.634v-21.365h6.634v21.365zM3.842 7.721c-2.122 0-3.842-1.757-3.842-3.879 0-1.019 0.405-1.996 1.125-2.717s1.698-1.125 2.717-1.125c1.019 0 1.996 0.405 2.717 1.125s1.125 1.698 1.125 2.717c0 2.121-1.721 3.879-3.842 3.879zM31.994 32h-6.62v-10.4c0-2.479-0.050-5.657-3.449-5.657-3.449 0-3.978 2.693-3.978 5.479v10.579h-6.627v-21.365h6.363v2.914h0.093c0.886-1.679 3.049-3.45 6.277-3.45 6.714 0 7.949 4.422 7.949 10.165v11.736h-0.007z"></path>
</symbol>
</defs>
</svg>
